<svg id="Layer_1" data-name="Layer 1" xmlns="http://www.w3.org/2000/svg" viewBox="0 0 1423.47 297.49"><defs><style>.cls-1{fill:#fff;}.cls-2{fill:#3bb44a;}.cls-3{fill:none;stroke:#fff;stroke-miterlimit:10;stroke-width:3.41px;}</style></defs><title>IllinoisGreen_logo</title><path class="cls-1" d="M1294.58,1634.24h21v95.53h-21Z" transform="translate(-1002.17 -1564.23)"/><path class="cls-1" d="M1339.48,1634.24h21v76.43h47.63v19.11h-68.65Z" transform="translate(-1002.17 -1564.23)"/><path class="cls-1" d="M1424,1634.24h21v76.43h47.63v19.11H1424Z" transform="translate(-1002.17 -1564.23)"/><path class="cls-1" d="M1509.38,1634.24h21v95.53h-21Z" transform="translate(-1002.17 -1564.23)"/><path class="cls-1" d="M1554.28,1634.24h19.38l44.76,58.82v-58.82h20.74v95.53h-17.88L1575,1669v60.73h-20.74Z" transform="translate(-1002.17 -1564.23)"/><path class="cls-1" d="M1657.86,1682.28V1682c0-27.16,21.43-49.4,50.91-49.4s50.63,22,50.63,49.13v.27c0,27.16-21.43,49.4-50.9,49.4S1657.86,1709.44,1657.86,1682.28Zm79.57,0V1682c0-16.38-12-30-28.93-30s-28.66,13.37-28.66,29.75v.27c0,16.38,12,30,28.93,30S1737.43,1698.66,1737.43,1682.28Z" transform="translate(-1002.17 -1564.23)"/><path class="cls-1" d="M1779,1634.24h21v95.53h-21Z" transform="translate(-1002.17 -1564.23)"/><path class="cls-1" d="M1817.39,1715.85l12.42-14.88c8.6,7.1,17.61,11.6,28.52,11.6,8.6,0,13.78-3.41,13.78-9v-.27c0-5.32-3.28-8.05-19.24-12.15-19.24-4.91-31.66-10.24-31.66-29.21v-.27c0-17.33,13.92-28.8,33.44-28.8,13.92,0,25.79,4.37,35.48,12.15l-10.92,15.83c-8.46-5.87-16.79-9.42-24.84-9.42s-12.28,3.69-12.28,8.32v.27c0,6.28,4.09,8.32,20.61,12.56,19.38,5,30.3,12,30.3,28.66v.27c0,19-14.47,29.62-35.07,29.62A60.79,60.79,0,0,1,1817.39,1715.85Z" transform="translate(-1002.17 -1564.23)"/><path class="cls-2" d="M1948,1682.28V1682c0-27.16,21.15-49.4,50.09-49.4,17.2,0,27.57,4.64,37.53,13.1l-13.24,16c-7.37-6.14-13.92-9.69-25-9.69-15.29,0-27.43,13.51-27.43,29.75v.27c0,17.47,12,30.3,28.93,30.3,7.64,0,14.47-1.91,19.79-5.73v-13.65h-21.15v-18.15H2039v41.49a62,62,0,0,1-40.81,15.15C1968.47,1731.41,1948,1710.53,1948,1682.28Z" transform="translate(-1002.17 -1564.23)"/><path class="cls-2" d="M2059.22,1634.24h43.67c12.15,0,21.56,3.41,27.84,9.69,5.32,5.32,8.19,12.83,8.19,21.84v.27c0,15.42-8.33,25.11-20.47,29.61l23.34,34.12h-24.57l-20.47-30.57h-16.51v30.57h-21Zm42.31,46.4c10.24,0,16.1-5.46,16.1-13.51v-.27c0-9-6.28-13.65-16.51-13.65h-20.88v27.43Z" transform="translate(-1002.17 -1564.23)"/><path class="cls-2" d="M2157.89,1634.24h72.06v18.7h-51.18v19.38h45V1691h-45v20.06h51.86v18.7h-72.74Z" transform="translate(-1002.17 -1564.23)"/><path class="cls-2" d="M2249.32,1634.24h72.06v18.7h-51.18v19.38h45V1691h-45v20.06h51.86v18.7h-72.74Z" transform="translate(-1002.17 -1564.23)"/><path class="cls-2" d="M2340.76,1634.24h19.38l44.76,58.82v-58.82h20.74v95.53h-17.88L2361.5,1669v60.73h-20.74Z" transform="translate(-1002.17 -1564.23)"/><path class="cls-1" d="M1311,1830h5l13.64,31.21h-5.76l-3.14-7.48h-14.65l-3.19,7.48h-5.58Zm7.79,18.9-5.36-12.4-5.31,12.4Z" transform="translate(-1002.17 -1564.23)"/><path class="cls-1" d="M1348.63,1848v-17.84h5.45v17.62c0,5.76,3,8.85,7.84,8.85s7.79-2.92,7.79-8.63v-17.84h5.45v17.58c0,9.25-5.22,13.9-13.33,13.9S1348.63,1857,1348.63,1848Z" transform="translate(-1002.17 -1564.23)"/><path class="cls-1" d="M1380.72,1856.68l3.28-3.9c3,2.57,5.93,4,9.78,4,3.36,0,5.49-1.55,5.49-3.9v-.09c0-2.21-1.24-3.41-7-4.74-6.6-1.59-10.31-3.54-10.31-9.25v-.09c0-5.31,4.43-9,10.58-9a17.18,17.18,0,0,1,11.24,3.9l-2.92,4.12a14.07,14.07,0,0,0-8.41-3.19c-3.19,0-5,1.64-5,3.67v.09c0,2.39,1.42,3.45,7.35,4.87,6.55,1.59,10,3.94,10,9.08v.09c0,5.8-4.56,9.25-11.07,9.25A19.09,19.09,0,0,1,1380.72,1856.68Z" transform="translate(-1002.17 -1564.23)"/><path class="cls-1" d="M1409.56,1845.79v-.09a15.79,15.79,0,0,1,16-16,16.73,16.73,0,0,1,11.91,4.21L1434,1838a12.14,12.14,0,0,0-8.68-3.32c-5.71,0-10,5-10,10.94v.09c0,6.38,4.21,11.07,10.54,11.07a12.65,12.65,0,0,0,7.48-2.35v-5.8h-7.92v-4.74h13.19v13a19.76,19.76,0,0,1-12.93,4.83C1415.93,1861.73,1409.56,1854.82,1409.56,1845.79Z" transform="translate(-1002.17 -1564.23)"/><path class="cls-1" d="M1446.24,1830.21h13.9c3.54,0,6.33,1,8.1,2.75a6.94,6.94,0,0,1,2.08,5.13v.09a7.38,7.38,0,0,1-4.43,6.91c3.63,1.24,6.15,3.32,6.15,7.53v.09c0,5.53-4.56,8.5-11.47,8.5h-14.34Zm12.79,13.06c3.5,0,5.84-1.37,5.84-4.21V1839c0-2.44-1.95-3.94-5.45-3.94h-7.84v8.23Zm1.59,13.11c3.72,0,6-1.46,6-4.25V1852c0-2.61-2.08-4.16-6.37-4.16h-8.63v8.5Z" transform="translate(-1002.17 -1564.23)"/><path class="cls-1" d="M1476.93,1845.79v-.09a15.68,15.68,0,0,1,16-16,16.15,16.15,0,0,1,12.13,4.83l-3.5,4c-2.48-2.3-5.14-3.85-8.68-3.85-5.93,0-10.23,4.87-10.23,10.94v.09c0,6.06,4.29,11,10.23,11,3.81,0,6.24-1.55,8.9-4l3.5,3.54a16,16,0,0,1-12.57,5.49A15.59,15.59,0,0,1,1476.93,1845.79Z" transform="translate(-1002.17 -1564.23)"/><path class="cls-1" d="M1523.77,1845.79v-.09a15.68,15.68,0,0,1,16-16,16.15,16.15,0,0,1,12.13,4.83l-3.5,4c-2.48-2.3-5.14-3.85-8.68-3.85-5.93,0-10.23,4.87-10.23,10.94v.09c0,6.06,4.29,11,10.23,11,3.81,0,6.24-1.55,8.9-4l3.5,3.54a16,16,0,0,1-12.57,5.49A15.59,15.59,0,0,1,1523.77,1845.79Z" transform="translate(-1002.17 -1564.23)"/><path class="cls-1" d="M1555.51,1845.79v-.09a16.21,16.21,0,0,1,32.41-.09v.09a16.21,16.21,0,0,1-32.41.09Zm26.7,0v-.09c0-6-4.38-11-10.54-11s-10.45,4.91-10.45,10.94v.09c0,6,4.38,11,10.54,11S1582.2,1851.81,1582.2,1845.79Z" transform="translate(-1002.17 -1564.23)"/><path class="cls-1" d="M1594.84,1830.21h5.8l9.43,14.65,9.43-14.65h5.8v31h-5.45V1839l-9.78,14.61h-.18l-9.7-14.52v22.14h-5.36Z" transform="translate(-1002.17 -1564.23)"/><path class="cls-1" d="M1633.8,1830.21h5.8l9.43,14.65,9.43-14.65h5.8v31h-5.45V1839l-9.78,14.61h-.18l-9.7-14.52v22.14h-5.36Z" transform="translate(-1002.17 -1564.23)"/><path class="cls-1" d="M1672.42,1848v-17.84h5.45v17.62c0,5.76,3,8.85,7.84,8.85s7.79-2.92,7.79-8.63v-17.84h5.45v17.58c0,9.25-5.22,13.9-13.33,13.9S1672.42,1857,1672.42,1848Z" transform="translate(-1002.17 -1564.23)"/><path class="cls-1" d="M1707.07,1830.21h5l16.6,21.43v-21.43h5.36v31h-4.56l-17.09-22v22h-5.36Z" transform="translate(-1002.17 -1564.23)"/><path class="cls-1" d="M1742.69,1830.21h5.45v31h-5.45Z" transform="translate(-1002.17 -1564.23)"/><path class="cls-1" d="M1763.52,1835.25h-9.83v-5h25.15v5H1769v25.94h-5.49Z" transform="translate(-1002.17 -1564.23)"/><path class="cls-1" d="M1795.1,1849l-12.31-18.77h6.42l8.68,13.72,8.77-13.72h6.24l-12.31,18.64v12.35h-5.49Z" transform="translate(-1002.17 -1564.23)"/><line class="cls-3" x1="293.83" y1="228.22" x2="853.02" y2="228.22"/><path class="cls-1" d="M1205.63,1765c-.07-.75-.37-1.31-1.12-1.31a.92.92,0,0,0-1,.95c0,1.64,2.91,1.66,2.91,4a1.69,1.69,0,0,1-1.85,1.86,1.85,1.85,0,0,1-1.84-2.05h.72c0,.85.41,1.39,1.18,1.39s1.08-.42,1.08-1.2c0-1.65-2.91-1.83-2.91-3.9a1.62,1.62,0,0,1,1.75-1.69c1,0,1.73.7,1.78,2h-.72" transform="translate(-1002.17 -1564.23)"/><polyline class="cls-1" points="206.84 198.9 208.1 204.38 208.11 204.38 209.36 198.9 210.6 198.9 210.6 206.14 209.88 206.14 209.88 199.5 209.84 199.5 208.35 206.14 207.84 206.14 206.33 199.5 206.31 199.5 206.31 206.14 205.58 206.14 205.58 198.9 206.84 198.9"/><path class="cls-1" d="M1117.83,1791.21a111.31,111.31,0,1,1,111.31-111.32A111.32,111.32,0,0,1,1117.83,1791.21Zm0-227a115.66,115.66,0,1,0,115.66,115.66,115.66,115.66,0,0,0-115.66-115.66" transform="translate(-1002.17 -1564.23)"/><path class="cls-1" d="M1118.83,1734.95s-.09.76-.69.74-.57-.74-.57-.74-.44-26.53-.44-44.68.44-38,.44-38,.16-.76.67-.76.59.76.59.76.45,19.78.45,38S1118.83,1734.95,1118.83,1734.95Zm49.59-39.21c1.1-.51,14.32-4.59,11.29-12.49-2.14-5.55-6.25,1-9.11-1.11-.93-.68-1.5-1.23,2.53-5.14s5.25-6.69,5.65-9.09.4-4.24-1.25-5.17-3.84,1.52-4.49-1c-.4-1.36.12-2.13.13-4.57,0-2.66-2.72-9.31-9.07-7.07-4.12,1.44-1.94,8.52-3,9.87s-2-2.84-4.33-3.49c-2.65-.75-4.52,1.71-4.5,4s1.51,6.55,2,8.19c.27,1.3,1,4.86.54,5.91-.68,1.57-1.26,1.06-2.77-.95-1.34-1.77-.62-1-3-3.87-2.94-3.63-4.73,1.41-4.95,4.77s2.34,15.06,2.3,16.61c-.18,7-4.09-1-4.21-1.21-2.56-3.91-7.49-2.09-5.95,2.1,2.81,7.63,5.32,14.22,2.67,20.78-.36.87-.84,2.4-1.49,3.92,21.62-20.15,27.57-48,27.58-48.06a.85.85,0,0,1,.86-.48c.27.08.39.63.31.91,0,.05-7.06,41.48-44.76,62.61-.84.46-.93,0-1.09-.79.17-6.56.45-11,2.88-12.46,20.3-12.06,13.71-17.6,9.5-18.42a5.68,5.68,0,0,1-.81-10.7c10.21-5.74,15.45-26.27,2.75-21.79-1.16.09-9.51,4.45-2.15-8.15,7-12.6,4.82-23.8-2.41-18.93-1.88,1.28-7.25,7-6.18-1.25,1.91-12.46-1.17-16.91-4.82-17.73l-.7-.09-.32,0v0a8.47,8.47,0,0,0-1,.11c-3.66.82-6.73,5.27-4.83,17.73,1.08,8.21-4.28,2.53-6.17,1.25-7.23-4.88-9.37,6.33-2.4,18.93,7.35,12.59-1,8.24-2.15,8.15-12.7-4.48-7.47,16,2.76,21.79a5.68,5.68,0,0,1-.82,10.7c-4.21.82-10.81,6.36,9.5,18.42,2.44,1.45,2.73,5.94,2.91,12.53-.17.72-.29,1.17-1.12.72-37.7-21.14-44.74-62.56-44.77-62.61-.07-.28.14-.84.4-.91s.69.38.76.67c0,0,6,27.72,27.6,47.87-.66-1.53-1.14-3-1.5-3.92-2.65-6.56-.14-13.14,2.67-20.78,1.53-4.19-3.38-6-6-2.1-.12.19-4,8.24-4.2,1.21,0-1.54,2.51-13.25,2.31-16.61s-2-8.4-5-4.77c-2.37,2.85-1.66,2.1-3,3.87-1.52,2-2.09,2.52-2.77.95-.45-1,.25-4.6.53-5.91.49-1.65,2-5.9,2-8.19s-1.85-4.74-4.5-4c-2.31.66-3.24,4.87-4.33,3.49s1.13-8.43-3-9.87c-6.35-2.24-9.08,4.4-9.08,7.07,0,2.44.53,3.21.13,4.57-.67,2.54-2.84.1-4.48,1s-1.66,2.76-1.27,5.17,1.63,5.18,5.65,9.09,3.46,4.46,2.54,5.14c-2.87,2.14-7-4.44-9.1,1.11-3,7.89,10.17,12,11.26,12.49,2.84,1.36,4.39,4.45.54,3.53-1.56-.36-3.95-1.5-5.82.58-4.93,5.51,7.93,15.08,16.45,16.86a95,95,0,0,1,19.39,6.5c3.17,1.43,16.74,10.73,17.69,14.5a2.08,2.08,0,0,0,2.13,1.93,2,2,0,0,0,2.11-1.86c.86-3.69,14.48-13.14,17.67-14.57a95.24,95.24,0,0,1,19.38-6.5c8.54-1.77,21.39-11.35,16.47-16.86-1.87-2.08-4.25-.94-5.81-.58-3.87.91-2.31-2.17.51-3.53" transform="translate(-1002.17 -1564.23)"/><path class="cls-1" d="M1082.7,1603.72c.89-.39,3.19-1.35,3.19-1.35a2.4,2.4,0,0,0,1.39-1.17l-.14-1.51-1-1.11a2.31,2.31,0,0,0-1.72.13l-3.24,1.39c.26.61,1.28,3,1.54,3.63" transform="translate(-1002.17 -1564.23)"/><path class="cls-1" d="M1033.13,1644.91a1.8,1.8,0,0,0-2.49,1.24s-1.08,2.89-1.34,3.57l3.56,1.34c.25-.69,1.34-3.58,1.34-3.58a3,3,0,0,0,.19-1,1.65,1.65,0,0,0-1.26-1.6" transform="translate(-1002.17 -1564.23)"/><path class="cls-1" d="M1194.56,1645a3.3,3.3,0,0,0,.29,1.34c.9,2.05,3.06,2.52,5.9,1.26a5.63,5.63,0,0,0,3.21-2.78,3.09,3.09,0,0,0-.11-2.41c-.9-2-3-2.49-5.91-1.24-2.21,1-3.39,2.33-3.39,3.84" transform="translate(-1002.17 -1564.23)"/><path class="cls-1" d="M1139.84,1597.58a5.07,5.07,0,0,0,2-3.25,7.71,7.71,0,0,0,.21-1.71,3.92,3.92,0,0,0-.54-2.1,4.43,4.43,0,0,0-2.9-1.84l-1.31-.33c-.19.79-2,8.45-2.2,9.24l1.31.3a4.44,4.44,0,0,0,3.43-.32" transform="translate(-1002.17 -1564.23)"/><path class="cls-1" d="M1084.25,1594.75a1.65,1.65,0,0,0-.13-.62,1.34,1.34,0,0,0-2-.73l-3.21,1.36c.25.57.89,2.08,1.13,2.65l3.21-1.36c.81-.36,1-.87,1-1.29" transform="translate(-1002.17 -1564.23)"/><path class="cls-1" d="M1171.07,1745l-3.69,2.91,2.87,3.65,3.69-2.92c1.31-1,1.53-2.2.57-3.43S1172.32,1744,1171.07,1745Z" transform="translate(-1002.17 -1564.23)"/><path class="cls-1" d="M1119.4,1764l-4.13.08.07,4.62,4.18-.07c1.67,0,2.57-.81,2.55-2.38S1121,1763.94,1119.4,1764Z" transform="translate(-1002.17 -1564.23)"/><path class="cls-1" d="M1117.83,1572.68A107.22,107.22,0,1,0,1225,1679.9,107.23,107.23,0,0,0,1117.83,1572.68Zm96.67,102.17-9.07,5.91s-.35.21-.59.36l1.74,0,8-.17.07,3.07-15.62.32-.07-2.81,9.3-6.19.38-.24-1.72,0-8.09.17-.05-3.07,15.62-.32Zm-3.45-21.58.67,3.06-8.72,1.91a4.28,4.28,0,0,0-2.82,1.59,2.66,2.66,0,0,0-.26,2.06,2.75,2.75,0,0,0,1.12,1.84,4,4,0,0,0,3.06.24L1213,1662l.66,3.06-8.81,1.93c-4.3.94-7.13-.65-8-4.51s1.17-6.38,5.43-7.32l8.32-1.83Zm-4.32-12.12a6.18,6.18,0,0,1,.15,4.81,9.84,9.84,0,0,1-11.46,5,6.43,6.43,0,0,1-3.57-8.14,8.74,8.74,0,0,1,4.83-4.56C1201.09,1636.34,1205.12,1637.49,1206.73,1641.15Zm-18.65-16c4-2.7,8.17-2.29,10.41,1a5.7,5.7,0,0,1,.55,6.15l-.19.39-2.93-1.29.18-.42a2.72,2.72,0,0,0-.2-3.07,3,3,0,0,0-2-1.35,5.62,5.62,0,0,0-4.05,1.22c-2.59,1.75-3.36,3.82-2.12,5.65a3,3,0,0,0,2.93,1.45l.47,0,0,3.1-.44,0a6.06,6.06,0,0,1-5.58-2.81,6.2,6.2,0,0,1-1-4.67A8.76,8.76,0,0,1,1188.08,1625.12Zm-6.83-18.48a5.76,5.76,0,0,1,2.16,5.78l-.09.43-3.14-.48.06-.46a2.72,2.72,0,0,0-1-2.9,3,3,0,0,0-2.25-.8,5.67,5.67,0,0,0-3.6,2.25,5.61,5.61,0,0,0-1.67,3.9,3,3,0,0,0,1.13,2.1,2.83,2.83,0,0,0,2.1.82,2.62,2.62,0,0,0,1.62-.84l-1.77-1.53,2-2.3,4.22,3.62-1.42,1.65a6.64,6.64,0,0,1-4.46,2.5,5.92,5.92,0,0,1-4.33-1.55,6.08,6.08,0,0,1-2.2-4.23,8.61,8.61,0,0,1,2.37-6.21,8.74,8.74,0,0,1,5.79-3.29A6.11,6.11,0,0,1,1181.26,1606.64ZM1160.49,1593l2.58,1.47.42,10.81s0,.4,0,.69l.86-1.52,4-7L1171,1599l-7.72,13.57-2.45-1.39-.54-11.16s0-.26,0-.44l-.85,1.5-4,7-2.67-1.53,7.5-13.15Zm-8.87-3.14.18-.42,2.9,1.15-5.7,14.54-2.91-1.14Zm-16.75-4.72.1-.45,4.34,1c4.65,1.1,6.74,4.6,5.61,9.37-1.34,5.59-5.65,6.67-9.23,5.82l-4.36-1Zm-16.15-1.43,0-.46,3.12.17s-.67,11.65-.71,12.52c.82,0,7.33.4,7.33.4l-.19,3.09-10.44-.59Zm-6.3-.2.46,0,1.06,15.59-3.13.21-1.06-15.58Zm-17.58,2.59,1.87,8.72c.52,2.47,1.75,3.52,3.63,3.11,1.23-.27,2.79-1,2.11-4.18l-1.9-8.88,2.61-.56.45-.09,1.89,8.83a7.13,7.13,0,0,1-.64,5.5,5.86,5.86,0,0,1-3.9,2.45,5.69,5.69,0,0,1-4.43-.63,7.23,7.23,0,0,1-2.86-4.83l-1.88-8.8Zm-13.9,4.6a4.88,4.88,0,0,1,3.77-.23,4.18,4.18,0,0,1,2.23,2.34,3.82,3.82,0,0,1,.32,1.51,3.64,3.64,0,0,1-.67,1.68,3.79,3.79,0,0,1,3.4,2.43,5.8,5.8,0,0,1,.5,2.22,4.28,4.28,0,0,1-.29,1.55,5.79,5.79,0,0,1-3.32,3l-5.8,2.47-6.12-14.38Zm-25.83,15.83,10.21,3.58.64.25-1.1-1.35-5-6.27,2-1.62.36-.3L1072,1613l-2.19,1.76-10.57-3.59-.42-.16,1.09,1.34,5.06,6.31-2.39,1.92-9.79-12.2Zm-7.17,6.7.29-.35,2.33,2s-4.21,4.89-4.75,5.51c.46.39,1.59,1.38,2.06,1.77l2.75-3.2,2.33,2s-2.27,2.65-2.75,3.2c.51.43,2.31,2,2.82,2.42l4.95-5.74,2.32,2-7,8.12-11.84-10.2Zm-25.42,50.21a5.76,5.76,0,0,1,3.84-4.83l.43-.15,1.19,2.94-.43.19a2.75,2.75,0,0,0-2,2.37,3.07,3.07,0,0,0,.49,2.35,5.58,5.58,0,0,0,3.78,1.92c3.08.53,5-.43,5.42-2.64a3.76,3.76,0,0,0,.07-.71,2.53,2.53,0,0,0-.45-1.51,2.61,2.61,0,0,0-1.54-1c-.1.64-.38,2.32-.38,2.32l-3-.51.93-5.5,2.14.37a6.59,6.59,0,0,1,4.43,2.54,5.89,5.89,0,0,1,.91,4.5,6.13,6.13,0,0,1-2.49,4.08,9.84,9.84,0,0,1-12.35-2.09,6,6,0,0,1-1.11-3.51A7.63,7.63,0,0,1,1022.52,1663.41Zm17.13,36.36a2.13,2.13,0,1,1-2.59-1.54A2.17,2.17,0,0,1,1039.65,1699.77Zm-2.46-19.12a2.13,2.13,0,1,1-2.16-2.09A2.15,2.15,0,0,1,1037.2,1680.66Zm-15.36,11.18a7.11,7.11,0,0,1,1.49-5.35l.28-.37,2.5,1.92-.3.37a4.1,4.1,0,0,0-.88,3.23,2.36,2.36,0,0,0,.7,1.58l.9.23c.62-.08,1-.32,1.48-3.08s1.17-5.22,4.23-5.58a4.54,4.54,0,0,1,3.52.85,6.28,6.28,0,0,1,2.08,4.4,7.27,7.27,0,0,1-1.84,5.84l-.29.32-2.42-1.94.3-.37a4.9,4.9,0,0,0,1.16-3.65c-.27-2.28-1.2-2.45-2-2.36s-1.18.59-1.62,3.22c-.52,3.06-1.08,5.08-4.13,5.46a4.2,4.2,0,0,1-3.17-.86A5.6,5.6,0,0,1,1021.84,1691.84Zm16.18,24.54-8.42,3.15-1.09-2.93,8.35-3.13a4.31,4.31,0,0,0,2.56-2,2.64,2.64,0,0,0,0-2.07c-.46-1.19-1.4-2.63-4.46-1.48l-8.49,3.2-1.09-2.94,8.45-3.17c4.12-1.54,7.15-.36,8.54,3.33S1042.09,1714.84,1038,1716.38Zm5-67.36-6.47.69c-.14.39-.68,1.83-.9,2.4l5.45,2L1040,1657l-14.63-5.47,2.43-6.48c1.13-3,3.56-4.19,6.36-3.15a4.49,4.49,0,0,1,3.24,4.36s0,.06,0,.09l6.87-.72Zm-10.57-14.38,5.11-8.52.24-.39,2.63,1.57-3.74,6.24c.52.3,1.8,1.08,2.33,1.38l2.16-3.62,2.62,1.59-2.16,3.62,3.19,1.91c.41-.7,3.9-6.5,3.9-6.5l2.62,1.58-5.5,9.18Zm33.34,111.07c-2.11-1.69-4.79-.82-6.89,1.79s-2.36,5.42-.25,7.12c1.26,1,2.43,1.07,4.18.42l1.23,3.3a6.89,6.89,0,0,1-7.74-1c-3.66-2.94-3.86-7.74-.3-12.16,3.43-4.26,8.39-5.16,12-2.21a6.76,6.76,0,0,1,2.62,7.22l-3.56-.89A3.4,3.4,0,0,0,1065.8,1745.7Zm12.48,24.61,3.29-6.8-6.64-3.23-3.29,6.82-3.25-1.57,7.84-16.2,3.24,1.58-3,6.2,6.64,3.21,3-6.2,3.24,1.57-7.84,16.2Zm22.73,6.85-.51-4.21-6.43-1.42-2.24,3.61-3.77-.84,10.61-16.08,3.42.76,2.79,19Zm18.35-5.06-4,.05.1,6.38-3.6.07-.3-18,7.87-.13c3.39,0,6.22,1.77,6.28,5.62C1125.82,1770.24,1123.07,1772,1119.36,1772.1Zm22.19,3.53-3.51.8-3.2-14.08-5,1.15L1129,1760l13.58-3.09.79,3.46-5,1.14Zm13.51-4.21-7.79-16.22,11.26-5.4L1160,1753l-8,3.86,1.34,2.8,4.64-2.24,1.52,3.15-4.65,2.23,1.88,3.92,8.37-4,1.52,3.16Zm26.67-16.35-6.54-3.09-2.84,2.24,4,5.07-2.82,2.23-11.16-14.11,6.56-5.2c2.67-2.09,6-2.38,8.4.64a5.12,5.12,0,0,1,.58,6.29l7,3.35Zm-63.9-5.34a69.84,69.84,0,1,1,69.84-69.83A69.84,69.84,0,0,1,1117.83,1749.73Zm88.6-30.85-11.37-5.25-3.07,6.65-2.81-1.29,4.18-9.07.19-.43,14.19,6.56Zm3.3-8.57-14.91-4.65.78-2.56.15-.43,14.91,4.64Zm-.21-8.76-.43.15-1.21-3,.42-.16a2.73,2.73,0,0,0,2-2.36,3,3,0,0,0-.48-2.34,5.73,5.73,0,0,0-3.79-1.92c-3.07-.52-5,.45-5.42,2.62a3,3,0,0,0,1.12,3.06l.36.32-2.13,2.27-.33-.28a6,6,0,0,1-2.09-5.89c.66-3.94,4.3-6.05,9-5.23a8.68,8.68,0,0,1,5.8,3.25,6,6,0,0,1,1,4.67A5.67,5.67,0,0,1,1209.52,1701.55Z" transform="translate(-1002.17 -1564.23)"/><path class="cls-1" d="M1099.33,1763c-.32.6-.9,1.59-1.48,2.54l-1.83,2.93,4,.9-.42-3.44C1099.47,1764.81,1099.36,1763.67,1099.33,1763Z" transform="translate(-1002.17 -1564.23)"/></svg>